<?xml version="1.0" encoding="UTF-8" standalone="no"?>
<svg
   xmlns:dc="http://purl.org/dc/elements/1.1/"
   xmlns:cc="http://creativecommons.org/ns#"
   xmlns:rdf="http://www.w3.org/1999/02/22-rdf-syntax-ns#"
   xmlns:svg="http://www.w3.org/2000/svg"
   xmlns="http://www.w3.org/2000/svg"
   xmlns:sodipodi="http://sodipodi.sourceforge.net/DTD/sodipodi-0.dtd"
   xmlns:inkscape="http://www.inkscape.org/namespaces/inkscape"
   width="100mm"
   height="100mm"
   viewBox="0 0 100 100"
   version="1.1"
   id="svg8"
   sodipodi:docname="ic-night.svg"
   inkscape:version="1.0.2 (e86c870879, 2021-01-15)">
  <defs
     id="defs2">
    <marker
       style="overflow:visible"
       id="Arrow1Lstart"
       refX="0.0"
       refY="0.0"
       orient="auto"
       inkscape:stockid="Arrow1Lstart"
       inkscape:isstock="true">
      <path
         transform="scale(0.8) translate(12.5,0)"
         style="fill-rule:evenodd;stroke:none;stroke-width:1pt;stroke-opacity:1;fill:#ffff00;fill-opacity:1"
         d="M 0.0,0.0 L 5.0,-5.0 L -12.5,0.0 L 5.0,5.0 L 0.0,0.0 z "
         id="path1311" />
    </marker>
  </defs>
  <sodipodi:namedview
     id="base"
     pagecolor="#ffffff"
     bordercolor="#666666"
     borderopacity="1.0"
     inkscape:pageopacity="0.0"
     inkscape:pageshadow="2"
     inkscape:zoom="0.49497475"
     inkscape:cx="18.206941"
     inkscape:cy="238.96466"
     inkscape:document-units="mm"
     inkscape:current-layer="layer1"
     inkscape:document-rotation="0"
     showgrid="false"
     inkscape:window-width="1294"
     inkscape:window-height="704"
     inkscape:window-x="0"
     inkscape:window-y="0"
     inkscape:window-maximized="1" />
  <metadata
     id="metadata5">
    <rdf:RDF>
      <cc:Work
         rdf:about="">
        <dc:format>image/svg+xml</dc:format>
        <dc:type
           rdf:resource="http://purl.org/dc/dcmitype/StillImage" />
        <dc:title></dc:title>
      </cc:Work>
    </rdf:RDF>
  </metadata>
  <g
     inkscape:label="Layer 1"
     inkscape:groupmode="layer"
     id="layer1">
    <g
       id="g996"
       transform="rotate(-44.733142,49.966685,50.619071)" />
    <g
       id="g1002"
       transform="rotate(45.266858,50.456149,49.59044)" />
    <path
       id="path1702"
       style="fill:#92c218;fill-opacity:1;stroke:none;stroke-width:6.6565;stroke-linecap:round;stroke-miterlimit:4;stroke-dasharray:none;stroke-opacity:1"
       d="M 187.55664,22.564453 A 166.41261,166.41261 0 0 0 21.144531,188.97656 166.41261,166.41261 0 0 0 187.55664,355.38867 166.41261,166.41261 0 0 0 309.33203,302.39648 131.34137,121.01887 0 0 1 263.52344,309.99609 131.34137,121.01887 0 0 1 132.18164,188.97656 131.34137,121.01887 0 0 1 263.52344,67.957031 131.34137,121.01887 0 0 1 309.33203,75.558594 166.41261,166.41261 0 0 0 187.55664,22.564453 Z"
       transform="scale(0.26458333)" />
    <path
       sodipodi:type="star"
       style="fill:#92c218;fill-opacity:1;stroke:none;stroke-width:4;stroke-linecap:round;stroke-miterlimit:4;stroke-dasharray:none;stroke-opacity:1"
       id="path1771"
       sodipodi:sides="5"
       sodipodi:cx="68.439789"
       sodipodi:cy="47.354733"
       sodipodi:r1="24.75585"
       sodipodi:r2="12.377924"
       sodipodi:arg1="0.8663601"
       sodipodi:arg2="1.4946786"
       inkscape:flatsided="false"
       inkscape:rounded="0"
       inkscape:randomized="0"
       d="M 84.471785,66.218115 69.381059,59.696816 55.453805,68.431173 56.992639,52.063847 44.382013,41.517306 60.423791,37.923042 66.55725,22.670565 74.93278,36.816513 91.334091,37.936504 80.468676,50.273445 Z"
       inkscape:transform-center-x="0.043893936"
       inkscape:transform-center-y="-2.3221897"
       transform="rotate(4.0324745,68.439789,47.354733)" />
  </g>
</svg>
