<?xml version="1.0" encoding="UTF-8" standalone="no"?>
<svg
   xmlns:dc="http://purl.org/dc/elements/1.1/"
   xmlns:cc="http://creativecommons.org/ns#"
   xmlns:rdf="http://www.w3.org/1999/02/22-rdf-syntax-ns#"
   xmlns:svg="http://www.w3.org/2000/svg"
   xmlns="http://www.w3.org/2000/svg"
   xmlns:sodipodi="http://sodipodi.sourceforge.net/DTD/sodipodi-0.dtd"
   xmlns:inkscape="http://www.inkscape.org/namespaces/inkscape"
   width="10cm"
   height="10cm"
   viewBox="0 0 100 99.999997"
   version="1.1"
   id="svg1182"
   inkscape:version="1.0.2 (e86c870879, 2021-01-15)"
   sodipodi:docname="drawing.svg">
  <defs
     id="defs1176" />
  <sodipodi:namedview
     id="base"
     pagecolor="#ffffff"
     bordercolor="#666666"
     borderopacity="1.0"
     inkscape:pageopacity="0.0"
     inkscape:pageshadow="2"
     inkscape:zoom="0.98994949"
     inkscape:cx="176.7494"
     inkscape:cy="239.00786"
     inkscape:document-units="mm"
     inkscape:current-layer="layer1"
     inkscape:document-rotation="0"
     showgrid="false"
     units="cm"
     inkscape:window-width="1294"
     inkscape:window-height="704"
     inkscape:window-x="0"
     inkscape:window-y="0"
     inkscape:window-maximized="1" />
  <metadata
     id="metadata1179">
    <rdf:RDF>
      <cc:Work
         rdf:about="">
        <dc:format>image/svg+xml</dc:format>
        <dc:type
           rdf:resource="http://purl.org/dc/dcmitype/StillImage" />
        <dc:title></dc:title>
      </cc:Work>
    </rdf:RDF>
  </metadata>
  <g
     inkscape:label="Layer 1"
     inkscape:groupmode="layer"
     id="layer1">
    <g
       id="Layer1001"
       transform="matrix(0.84302632,0,0,0.84302632,-288.26247,-270.34377)">
      <path
         d="m 445.5992,376.4217 -0.0766,3.9263 c 0,0 -3.5891,1.6861 -4.3262,0.4055 -0.7372,-1.2805 -0.3895,-1.1154 -0.3895,-1.1154 l -0.1346,-2.1408 c 0,0 4.6502,-2.6818 4.9269,-1.0756 z"
         style="fill:#dec085;fill-rule:evenodd"
         id="path999" />
      <path
         d="m 440.8069,379.638 c 0,0 1.2098,2.1558 4.7444,-0.7629 0,0 0.348,-0.1969 2.4316,0.4268 2.0836,0.6236 8.8097,5.2482 12.5585,11.6211 0,0 0.8033,2.8384 -8.7829,7.8189 l -1.2853,-1.7137 c 0,0 3.3203,-2.5707 4.9269,-5.7303 0,0 -2.7847,-3.2132 -4.2307,-3.8559 0,0 -2.7313,4.8735 -1.928,11.2999 0,0 -0.5355,2.8384 -3.9629,2.7312 -15.3344,-0.4792 -2.8073,-13.0208 -9.1578,-19.0652 -4.4449,-4.2308 -6.9085,-6.9085 -6.0516,-8.3544 0.857,-1.446 10.3896,-2.1958 10.3896,-2.1958 l -0.0536,1.928 c 0,0 -3.7488,0.8568 -5.9445,2.1421 0,0 5.1415,3.4424 6.3463,3.7102 z"
         style="fill:#fae92d;fill-rule:evenodd"
         id="path1001" />
      <path
         d="m 440.0818,371.5731 c 0,0 -1.7473,7.4995 1.0155,7.8067 2.7627,0.3073 4.5956,-1.2405 4.8038,-4.3687 0.2082,-3.1283 -2.6062,-4.2924 -5.8193,-3.438 z"
         style="fill:#e8ce99;fill-rule:evenodd"
         id="path1003" />
      <path
         d="m 443.0367,369.2432 c 0,0 4.807,1.003 4.058,5.205 -0.7491,4.2021 -1.7882,2.5886 -1.6788,1.1666 0.1094,-1.422 -1.641,0.5197 -1.3401,-1.1484 0.3009,-1.6682 0.5743,-1.887 -0.7383,-2.0784 -1.3126,-0.1914 -3.9651,-0.0546 -3.6643,-1.9415 0.3008,-1.8869 1.2578,-2.2698 2.0236,-2.2424 0.7657,0.0273 1.3399,1.0391 1.3399,1.0391 z"
         style="fill:#3a3a3a;fill-rule:evenodd"
         id="path1005" />
      <path
         d="m 451.7585,398.7419 c 0,0 -4.044,3.7955 -5.1151,1.6266 0,0 -0.6567,-1.3378 2.51,-2.4897 l -0.0413,-0.6737 c 0,0 0.8732,-0.0428 1.3611,-0.1769 z"
         style="fill:#e8ce99;fill-rule:evenodd"
         id="path1007" />
      <path
         d="m 373.7173,409.3007 c -21.1062,8.1763 -31.7543,-16.9227 -11.789,-24.7189 0,0 -38.4095,-17.1133 -8.7468,-20.5359 0,0 -21.6768,-29.8531 9.6973,-11.7892 0,0 -10.9776,-32.8486 -0.9508,-30.6134 10.0268,2.2352 18.254,34.4164 18.254,34.4164 0,0 3.6129,-9.6974 12.93,-7.0353 9.3171,2.6621 3.7078,16.9942 -6.0847,22.4371 0,0 32.086,-16.5817 27.1751,16.7703 -5.893,40.0219 -19.7595,-2.3192 -19.7595,-2.3192 0,0 -5.4855,26.879 -20.7256,23.3881 z"
         style="fill:#6a9400;fill-rule:evenodd"
         id="path1009" />
      <path
         d="m 362.2584,328.6719 c 0,0 6.484,14.7509 11.4385,38.7197 -6.7705,-6.5946 -21.3261,-16.0924 -21.3261,-16.0924 18.7454,13.7957 22.0461,20.1051 22.1703,20.3511 0.7942,4.182 1.533,8.6119 2.1782,13.266 -6.9492,-6.5679 -20.8593,-15.6445 -20.8593,-15.6445 14.1033,10.3793 19.4637,16.5206 21.307,19.0311 0.334,2.6563 0.6365,5.3798 0.9006,8.1665 -6.0683,-0.9872 -17.9957,-0.4125 -17.9957,-0.4125 10.4815,0.0854 15.7671,1.0891 18.1186,1.7445 0.2419,2.6967 0.4475,5.4514 0.6106,8.2599 0,0 2.2017,-2.1529 3.4226,-0.5705 0.3957,0.513 -0.3047,-5.0622 -1.8397,-13.5821 1.8703,-2.4546 6.867,-7.9726 19.1905,-17.0422 0,0 -13.5032,8.8114 -19.5966,14.8252 -1.0259,-5.5116 -2.3568,-12.0291 -3.933,-18.8312 0.856,-1.3409 4.538,-6.2776 17.0842,-15.511 0,0 -12.8189,8.3646 -17.5571,13.4929 -3.5181,-14.8408 -8.1591,-30.6798 -13.3136,-40.1705 z"
         style="fill:#618702;fill-rule:evenodd"
         id="path1011" />
      <path
         d="m 382.8057,406.0189 c -19.6216,-1.9305 -18.045,-25.6273 0.5402,-23.8491 0,0 -23.1449,-28.3889 1.2631,-19.4021 0,0 -5.1319,-31.724 12.1693,-5.3587 0,0 4.3636,-29.8518 11.282,-24.1765 6.9185,5.6753 0.6786,33.9281 0.6786,33.9281 0,0 6.6172,-6.1214 12.8162,-0.3929 6.199,5.7285 -3.7903,14.6696 -13.5417,15.0564 0,0 31.4594,-0.2933 14.5444,23.7107 -20.2979,28.8045 -14.4531,-9.5624 -14.4531,-9.5624 0,0 -14.8201,18.7454 -25.299,10.0465 z"
         style="fill:#92c218;fill-rule:evenodd"
         id="path1013" />
      <path
         d="m 405.5573,338.8273 c 0,0 -0.7508,14.0155 -6.3106,34.5978 -2.6748,-7.7863 -10.2627,-20.8869 -10.2627,-20.8869 9.1579,18.0876 9.2468,24.2896 9.2467,24.5296 -1.0246,3.5636 -2.1896,7.2981 -3.5156,11.1702 -2.8241,-7.8356 -10.0756,-20.3553 -10.0756,-20.3553 6.8901,13.6084 8.6464,20.4885 9.0938,23.1643 -0.7833,2.1966 -1.6176,4.433 -2.5065,6.7034 -4.3307,-3.1504 -13.8304,-7.3873 -13.8304,-7.3873 8.1162,4.1823 11.8319,7.0383 13.4029,8.4712 -0.8708,2.1919 -1.7927,4.4144 -2.7687,6.6622 0,0 2.5573,-0.8094 2.8852,0.9005 0.1063,0.5542 1.7509,-4.0558 3.903,-11.2831 2.4181,-1.1741 8.47,-3.5024 21.6135,-5.7152 0,0 -13.9593,1.5487 -21.0587,3.8319 1.3666,-4.6883 2.8911,-10.2785 4.3365,-16.1864 1.1922,-0.7064 5.9937,-3.0991 19.3746,-5.3517 0,0 -13.2518,1.47 -18.9498,3.5968 3.0923,-12.9207 5.7034,-27.0586 5.4224,-36.462 z"
         style="fill:#6a9400;fill-rule:evenodd"
         id="path1015" />
      <path
         d="m 381.2565,387.0856 76.3479,13.1349 c -4.1086,12.9603 -10.0616,23.2586 -14.1702,36.2189 -1.7114,3.6672 -47.9168,-9.7789 -71.8752,-14.6685 z"
         style="fill:#ececed;fill-rule:evenodd"
         id="path1017" />
      <path
         d="m 367.9164,378.1242 44.0912,8.9982 v -5.122 l 21.3173,4.3505 v 5.122 l 6.4666,1.3197 0.0477,41.9595 c -1e-4,0.5468 0.4756,2.7565 3.595,1.6873 0,0 -1.6817,2.2648 -3.6427,1.9882 l -71.8751,-14.6684 z"
         style="fill:#d9dadb;fill-rule:evenodd"
         id="path1019" />
      <g
         id="Layer1002">
        <g
           id="Layer1003">
          <path
             d="m 393.7514,401.3291 a 1.7147,2.1703 -41.5898 0 1 1.9287,2.3851 1.7147,2.1703 -41.5898 1 1 -1.9287,-2.3851 z"
             style="fill:#b1b3b4;fill-rule:evenodd"
             id="path1021" />
          <path
             d="m 406.2464,404.2811 a 1.7147,2.1703 -41.5898 0 1 1.9287,2.3851 1.7147,2.1703 -41.5898 1 1 -1.9287,-2.3851 z"
             style="fill:#b1b3b4;fill-rule:evenodd"
             id="path1023" />
        </g>
        <path
           d="m 399.9988,412.5575 c 3.141,0.7421 5.8367,3.2595 6.997,6.2166 l -1.169,-0.2762 c -1.0851,-2.3448 -3.2874,-4.2943 -5.828,-4.8946 -2.5405,-0.6002 -4.7429,0.3088 -5.828,2.1408 l -1.169,-0.2761 c 1.1603,-2.4089 3.856,-3.6526 6.997,-2.9105 z"
           style="fill:#b1b3b4;fill-rule:evenodd"
           id="path1026" />
      </g>
    </g>
  </g>
</svg>
